<?xml version="1.0" standalone="no"?>
<!DOCTYPE svg PUBLIC "-//W3C//DTD SVG 20010904//EN"
 "http://www.w3.org/TR/2001/REC-SVG-20010904/DTD/svg10.dtd">
<svg version="1.0" xmlns="http://www.w3.org/2000/svg"
 width="1024.000000pt" height="1024.000000pt" viewBox="0 0 1024.000000 1024.000000"
 preserveAspectRatio="xMidYMid meet">

<g transform="translate(0.000000,1024.000000) scale(0.100000,-0.100000)"
fill="#000000" stroke="none">
<path d="M5150 9089 c0 -5 5 -7 10 -4 6 3 10 8 10 11 0 2 -4 4 -10 4 -5 0 -10
-5 -10 -11z"/>
<path d="M5250 9050 c8 -5 20 -10 25 -10 6 0 3 5 -5 10 -8 5 -19 10 -25 10 -5
0 -3 -5 5 -10z"/>
<path d="M5120 9039 c0 -5 -13 -9 -30 -9 -21 0 -30 -5 -30 -16 0 -14 -3 -14
-15 -4 -14 12 -20 7 -16 -14 3 -15 -22 -26 -46 -19 -14 3 -23 1 -23 -6 0 -6
-6 -11 -14 -11 -7 0 -23 -24 -35 -52 -16 -37 -24 -49 -30 -39 -6 9 -15 -4 -30
-44 -12 -31 -18 -62 -14 -68 4 -6 7 -23 7 -36 1 -24 31 -47 103 -80 11 -5 24
-15 28 -20 3 -6 17 -11 29 -11 13 0 35 -9 48 -20 29 -22 76 -27 136 -12 40 9
98 49 88 59 -2 3 7 29 20 59 26 58 30 84 14 84 -5 0 -10 4 -10 9 0 5 8 8 17 7
13 -1 17 8 18 42 1 23 -4 47 -11 53 -7 6 -10 17 -7 25 3 8 1 14 -5 14 -12 0
-34 59 -27 70 3 5 1 11 -5 15 -5 3 -10 -1 -10 -9 0 -22 -30 -20 -30 2 -1 14
-4 13 -20 -7 l-20 -23 -1 23 c0 23 -1 23 -9 4 -9 -20 -9 -20 -9 0 -1 13 -12
25 -31 32 -16 6 -30 7 -30 2z m180 -159 c0 -5 -2 -10 -4 -10 -3 0 -8 5 -11 10
-3 6 -1 10 4 10 6 0 11 -4 11 -10z m-9 -157 c-12 -20 -14 -14 -5 12 4 9 9 14
11 11 3 -2 0 -13 -6 -23z"/>
<path d="M5384 8969 c27 -47 32 -64 18 -55 -5 3 -14 -28 -21 -69 -6 -40 -21
-92 -32 -115 -11 -23 -18 -48 -15 -56 3 -8 2 -14 -2 -14 -4 0 -13 -18 -20 -41
-10 -33 -10 -44 0 -57 8 -9 8 -13 2 -9 -20 12 -41 -57 -25 -77 6 -6 12 -23 14
-37 4 -20 57 -113 57 -98 -1 14 -29 81 -30 70 0 -8 -2 -12 -4 -10 -1 2 0 54 4
114 6 87 16 138 50 244 46 149 46 177 4 226 l-25 30 25 -46z m-65 -486 c-1
-42 -2 -44 -9 -21 -7 25 -3 68 6 68 2 0 4 -21 3 -47z"/>
<path d="M5331 8965 c0 -11 4 -27 9 -35 9 -13 10 -13 9 0 0 8 -4 24 -9 35 l-9
20 0 -20z"/>
<path d="M5340 8845 c0 -8 2 -15 4 -15 2 0 6 7 10 15 3 8 1 15 -4 15 -6 0 -10
-7 -10 -15z"/>
<path d="M5271 8554 c0 -11 3 -14 6 -6 3 7 2 16 -1 19 -3 4 -6 -2 -5 -13z"/>
<path d="M4496 8515 c4 -8 15 -15 26 -15 12 0 17 -4 12 -12 -4 -7 -3 -8 4 -4
17 10 15 14 -18 31 -26 13 -29 14 -24 0z"/>
<path d="M4572 8486 c10 -7 14 -17 10 -21 -4 -5 -1 -5 6 -1 10 6 10 11 1 22
-6 8 -17 14 -23 14 -6 0 -3 -7 6 -14z"/>
<path d="M4610 8467 c0 -3 19 -20 43 -38 23 -19 36 -26 28 -16 -16 20 -71 61
-71 54z"/>
<path d="M4568 8425 c3 -18 10 -25 26 -24 17 1 17 2 4 6 -10 2 -18 11 -18 18
0 8 -4 16 -9 19 -4 3 -6 -6 -3 -19z"/>
<path d="M4924 8373 c-12 -2 -39 -22 -60 -45 -30 -33 -39 -38 -48 -27 -6 8
-17 15 -25 17 -9 2 -3 -11 13 -33 16 -20 25 -43 22 -53 -3 -9 -1 -35 4 -57 5
-22 7 -41 5 -43 -8 -8 -84 22 -78 31 3 6 1 7 -5 3 -7 -4 -55 7 -107 23 -52 17
-105 29 -117 27 -13 -3 -26 -5 -30 -5 -4 -1 -14 -14 -22 -29 -11 -22 -12 -38
-4 -75 5 -26 14 -47 18 -47 5 0 7 -6 4 -14 -3 -8 0 -25 7 -38 7 -13 12 -30 11
-38 -2 -13 -2 -13 7 -1 8 12 13 9 28 -17 10 -18 22 -32 26 -32 4 0 36 -30 70
-67 81 -87 163 -147 223 -162 27 -7 80 -22 117 -33 39 -12 79 -17 94 -14 40
11 128 101 157 162 22 46 26 70 26 132 -1 132 -10 183 -45 252 -65 128 -185
204 -291 183z"/>
<path d="M4705 8330 c3 -5 8 -10 11 -10 2 0 4 5 4 10 0 6 -5 10 -11 10 -5 0
-7 -4 -4 -10z"/>
<path d="M5366 8311 c4 -17 3 -21 -6 -16 -9 5 -11 4 -6 -4 4 -6 12 -9 17 -5 6
3 7 -4 4 -19 -5 -18 0 -32 19 -52 32 -34 33 -48 4 -40 -20 5 -21 4 -5 -5 9 -6
22 -8 29 -4 8 5 9 2 5 -9 -3 -10 -2 -17 4 -17 6 0 7 -5 4 -10 -4 -6 -11 -8
-16 -5 -5 4 -9 1 -9 -4 0 -6 5 -11 11 -11 5 0 8 -4 4 -9 -3 -5 -1 -12 5 -16 6
-3 10 4 11 17 0 15 7 6 18 -27 12 -34 20 -45 24 -35 4 9 5 6 3 -8 -2 -12 0
-20 4 -17 5 3 12 -9 15 -27 4 -17 19 -52 32 -76 14 -24 25 -60 26 -80 1 -19 3
-30 5 -23 2 6 8 9 13 5 13 -8 13 -8 -40 122 -55 135 -132 297 -143 302 -5 2
-6 8 -3 13 3 4 -4 25 -15 46 -12 22 -18 28 -14 14z"/>
<path d="M5424 8061 c21 -23 26 -26 26 -11 0 5 -10 15 -22 21 -23 12 -23 12
-4 -10z"/>
<path d="M5310 7991 c0 -5 5 -13 10 -16 6 -3 10 -2 10 4 0 5 -4 13 -10 16 -5
3 -10 2 -10 -4z"/>
<path d="M5280 7960 c0 -5 5 -10 10 -10 6 0 10 5 10 10 0 6 -4 10 -10 10 -5 0
-10 -4 -10 -10z"/>
<path d="M5451 7954 c0 -11 3 -14 6 -6 3 7 2 16 -1 19 -3 4 -6 -2 -5 -13z"/>
<path d="M5430 7880 c0 -5 5 -10 10 -10 6 0 10 5 10 10 0 6 -4 10 -10 10 -5 0
-10 -4 -10 -10z"/>
<path d="M5461 7864 c0 -11 3 -14 6 -6 3 7 2 16 -1 19 -3 4 -6 -2 -5 -13z"/>
<path d="M5591 7797 c-1 -12 41 -108 45 -104 3 2 -7 28 -20 58 -14 30 -25 50
-25 46z"/>
<path d="M5645 7650 c-3 -5 6 -30 20 -55 14 -26 23 -51 20 -56 -4 -5 -1 -9 5
-9 6 0 9 -4 6 -9 -4 -5 -2 -11 3 -13 4 -1 36 -61 70 -133 72 -149 237 -451
253 -461 6 -4 9 -3 6 2 -105 178 -293 544 -338 657 -12 31 -26 57 -31 57 -5 0
-6 7 -3 15 7 17 -1 21 -11 5z"/>
<path d="M5605 7530 c3 -5 8 -10 11 -10 2 0 4 5 4 10 0 6 -5 10 -11 10 -5 0
-7 -4 -4 -10z"/>
<path d="M5660 7441 c0 -5 5 -13 10 -16 6 -3 10 -2 10 4 0 5 -4 13 -10 16 -5
3 -10 2 -10 -4z"/>
<path d="M5700 7410 c0 -5 5 -10 11 -10 5 0 7 5 4 10 -3 6 -8 10 -11 10 -2 0
-4 -4 -4 -10z"/>
<path d="M4939 7316 c-60 -21 -96 -54 -125 -112 -23 -47 -26 -63 -22 -118 9
-106 69 -211 162 -281 21 -15 30 -36 41 -86 13 -65 61 -155 102 -192 30 -26
126 -57 186 -59 30 -1 70 6 95 17 77 32 158 146 147 206 -3 15 8 25 43 43 54
28 83 63 112 138 64 166 23 283 -126 358 -54 28 -79 34 -139 37 -42 1 -77 -2
-80 -7 -4 -6 -18 -2 -35 10 -57 41 -102 52 -215 55 -71 3 -123 -1 -146 -9z"/>
<path d="M4248 7163 c6 -2 18 -2 25 0 6 3 1 5 -13 5 -14 0 -19 -2 -12 -5z"/>
<path d="M4050 6961 c0 -6 4 -13 10 -16 6 -3 7 1 4 9 -7 18 -14 21 -14 7z"/>
<path d="M6056 6844 c13 -30 21 -60 18 -66 -4 -6 -2 -8 4 -4 6 3 15 -8 22 -29
6 -19 15 -35 20 -35 10 0 -8 47 -51 133 -37 73 -45 74 -13 1z"/>
<path d="M4119 6845 c5 -11 17 -29 26 -40 l16 -20 -10 20 c-5 11 -17 29 -26
40 l-16 20 10 -20z"/>
<path d="M4380 6841 c0 -6 4 -13 10 -16 6 -3 7 1 4 9 -7 18 -14 21 -14 7z"/>
<path d="M4170 6760 c6 -11 13 -20 16 -20 2 0 0 9 -6 20 -6 11 -13 20 -16 20
-2 0 0 -9 6 -20z"/>
<path d="M6136 6680 c3 -14 11 -32 16 -40 6 -10 7 -7 2 10 -3 14 -11 32 -16
40 -6 10 -7 7 -2 -10z"/>
<path d="M6160 6615 c0 -5 5 -17 10 -25 5 -8 10 -10 10 -5 0 6 -5 17 -10 25
-5 8 -10 11 -10 5z"/>
<path d="M4270 6606 c0 -2 8 -10 18 -17 15 -13 16 -12 3 4 -13 16 -21 21 -21
13z"/>
<path d="M5794 6569 c-59 -17 -124 -112 -124 -181 0 -10 5 -37 11 -60 l12 -43
-52 -55 c-110 -117 -135 -172 -129 -283 5 -92 27 -137 90 -183 46 -34 55 -37
121 -37 40 -1 79 3 87 8 8 5 18 10 23 11 4 1 8 2 10 4 1 1 34 4 72 6 179 10
387 81 431 149 10 16 14 37 11 62 -17 131 -63 219 -147 279 -39 28 -52 44 -60
77 -19 72 -22 81 -45 127 -28 56 -57 83 -115 109 -48 22 -139 27 -196 10z"/>
<path d="M6196 6527 c3 -10 9 -15 12 -12 3 3 0 11 -7 18 -10 9 -11 8 -5 -6z"/>
<path d="M4330 6524 c0 -6 7 -19 16 -30 14 -18 14 -18 3 6 -14 31 -19 36 -19
24z"/>
<path d="M6225 6448 c25 -83 68 -208 71 -205 5 5 -65 227 -72 227 -3 0 -2 -10
1 -22z"/>
<path d="M4765 6339 c-16 -5 -52 -14 -78 -19 -57 -11 -144 -64 -153 -93 -7
-21 44 -129 57 -121 4 2 7 -11 6 -28 -2 -30 -8 -36 -69 -67 -37 -19 -65 -38
-62 -42 3 -5 -1 -6 -9 -3 -20 7 -118 -43 -114 -59 1 -7 -9 -12 -23 -12 -27 0
-36 -21 -26 -61 4 -14 37 -58 75 -99 87 -94 113 -145 105 -207 -4 -29 -2 -48
5 -52 6 -4 11 -1 11 8 0 22 6 20 48 -14 44 -35 140 -76 202 -85 52 -7 179 16
255 47 112 47 154 105 155 214 0 77 -24 150 -63 192 l-31 32 30 33 c62 66 69
85 69 182 -1 75 -5 98 -25 138 -27 53 -76 97 -129 115 -40 14 -193 14 -236 1z
m-345 -409 c-8 -5 -22 -10 -30 -10 -13 0 -13 1 0 10 8 5 22 10 30 10 13 0 13
-1 0 -10z"/>
<path d="M6300 6225 c0 -5 5 -17 10 -25 5 -8 10 -10 10 -5 0 6 -5 17 -10 25
-5 8 -10 11 -10 5z"/>
<path d="M6330 6135 c0 -5 5 -17 10 -25 5 -8 10 -10 10 -5 0 6 -5 17 -10 25
-5 8 -10 11 -10 5z"/>
<path d="M7560 6029 c0 -5 5 -7 10 -4 7 4 8 -7 4 -32 -4 -24 0 -59 9 -91 19
-62 13 -68 -9 -12 -9 23 -18 39 -20 37 -7 -6 18 -70 43 -109 13 -21 23 -45 23
-53 0 -9 4 -14 9 -11 4 3 23 -27 41 -66 18 -40 50 -96 71 -125 27 -35 34 -50
22 -46 -14 4 -15 3 -7 -6 16 -17 86 -10 91 9 4 13 3 13 -7 0 -10 -13 -11 -12
-6 3 3 10 6 21 6 23 0 3 5 2 10 -1 6 -3 10 0 10 7 -1 7 -20 22 -43 33 -72 35
-188 228 -173 290 8 30 18 29 161 -12 119 -33 203 -40 230 -18 20 16 20 16 -2
10 -24 -7 -149 32 -221 69 -26 13 -78 45 -115 70 -48 32 -79 46 -103 46 -19 0
-34 -5 -34 -11z"/>
<path d="M7693 5858 c-8 -9 -8 -23 1 -49 16 -45 99 -163 134 -189 15 -11 35
-27 45 -37 17 -17 20 -16 53 20 19 20 32 41 29 47 -3 5 -1 10 4 10 13 0 14 79
2 98 -4 8 -28 16 -52 19 -45 6 -109 38 -109 54 0 9 -31 24 -74 35 -13 3 -27 0
-33 -8z m34 -4 c-3 -3 -12 -4 -19 -1 -8 3 -5 6 6 6 11 1 17 -2 13 -5z"/>
<path d="M6341 5834 c0 -11 3 -14 6 -6 3 7 2 16 -1 19 -3 4 -6 -2 -5 -13z"/>
<path d="M7860 5816 c14 -9 43 -15 65 -14 l40 1 -40 6 c-22 4 -51 11 -65 15
l-25 7 25 -15z"/>
<path d="M8308 5756 c-26 -12 -53 -27 -60 -33 -7 -6 -40 -19 -73 -29 -104 -31
-97 -47 9 -20 30 8 75 26 99 40 25 13 48 22 51 19 3 -3 12 -1 19 5 20 17 100
17 139 2 18 -8 66 -36 105 -63 77 -51 142 -82 144 -70 1 5 1 11 0 16 0 4 4 7
9 7 6 0 10 9 10 20 0 21 -16 28 -22 9 -7 -22 -75 1 -143 47 -37 25 -82 52
-100 60 -50 21 -132 16 -187 -10z"/>
<path d="M6518 5743 c7 -3 16 -2 19 1 4 3 -2 6 -13 5 -11 0 -14 -3 -6 -6z"/>
<path d="M6555 5730 c2 -4 -23 -10 -56 -13 -121 -11 -228 -92 -215 -161 10
-47 48 -116 81 -145 17 -14 69 -46 115 -70 94 -49 129 -79 226 -194 36 -42 85
-88 108 -101 63 -37 150 -52 222 -38 87 17 214 83 258 134 21 24 66 72 100
108 118 123 136 147 136 186 0 62 -27 95 -115 139 -40 20 -75 27 -180 35 -264
21 -437 50 -593 99 -50 16 -90 25 -87 21z"/>
<path d="M7630 5731 c0 -6 4 -13 10 -16 6 -3 7 1 4 9 -7 18 -14 21 -14 7z"/>
<path d="M5190 5719 c0 -5 5 -7 10 -4 6 3 10 8 10 11 0 2 -4 4 -10 4 -5 0 -10
-5 -10 -11z"/>
<path d="M8410 5713 c-37 -15 -52 -72 -30 -114 14 -26 75 -55 135 -64 46 -7
48 -8 25 -17 -45 -18 -134 -3 -197 33 -76 43 -92 66 -54 76 11 3 27 20 35 38
19 39 20 56 3 35 -17 -21 -102 -70 -122 -70 -31 0 -9 -25 61 -68 135 -83 236
-95 346 -41 37 19 68 40 68 46 0 18 -96 91 -164 124 -59 29 -78 33 -106 22z"/>
<path d="M7645 5630 c-16 -7 -17 -9 -3 -9 9 -1 20 4 23 9 7 11 7 11 -20 0z"/>
<path d="M5850 5592 c-14 -2 -83 -19 -155 -38 -71 -19 -185 -46 -254 -60 -68
-14 -142 -32 -165 -40 -58 -22 -171 -60 -236 -79 -66 -20 -137 -76 -157 -122
-12 -31 -12 -38 4 -71 42 -85 171 -142 322 -142 159 0 248 22 401 99 52 27
109 52 127 55 83 19 253 165 275 238 15 50 -4 112 -42 139 -27 18 -79 28 -120
21z"/>
<path d="M9293 5570 c-17 -4 -39 -14 -48 -23 -14 -15 -14 -20 4 -56 20 -39
130 -131 156 -131 8 0 20 -6 27 -14 8 -7 25 -17 38 -21 l25 -7 -22 24 c-28 30
-29 38 -3 31 11 -3 17 -9 14 -14 -3 -5 4 -9 16 -9 17 0 19 -3 10 -20 -6 -10
-26 -27 -46 -36 -49 -23 -120 -13 -213 31 -105 50 -137 53 -262 19 -90 -23
-130 -28 -292 -33 -185 -6 -189 -7 -209 -30 -38 -49 -6 -99 84 -131 99 -35
223 -28 398 20 158 44 205 48 271 25 87 -31 122 -35 184 -20 73 17 78 18 70 5
-3 -5 -4 -10 -1 -10 3 0 10 10 17 21 9 17 8 20 -3 14 -7 -3 -5 0 5 8 20 17 38
125 19 113 -7 -4 -12 -16 -12 -27 0 -10 -6 -19 -14 -19 -11 0 -9 10 9 43 14
23 24 53 24 67 -1 23 -2 22 -8 -5 -6 -25 -9 -19 -19 44 -16 94 -24 109 -75
132 -44 19 -89 22 -144 9z m134 -21 c40 -19 71 -54 60 -66 -3 -2 -8 5 -12 16
-3 12 -10 21 -15 21 -10 0 16 -69 31 -84 5 -6 9 -17 9 -25 0 -14 -1 -14 -10
-1 -7 11 -10 11 -10 2 0 -7 -5 -10 -11 -6 -8 5 -8 8 0 13 8 5 5 20 -9 49 -11
22 -20 46 -20 51 0 6 -19 19 -42 30 -24 11 -37 20 -29 20 8 1 34 -8 58 -20z
m-29 -28 c17 -17 32 -37 32 -45 0 -23 -15 -19 -28 7 -7 15 -11 17 -11 6 -1 -8
10 -26 24 -39 14 -13 25 -29 25 -36 0 -7 6 -15 13 -18 7 -3 5 -5 -4 -3 -16 2
-119 130 -119 148 0 19 37 8 68 -20z"/>
<path d="M7645 5299 c-90 -26 -175 -162 -176 -281 -1 -72 10 -104 48 -154 58
-77 165 -101 293 -66 52 14 120 22 220 25 156 6 285 32 319 64 27 26 51 78 51
110 0 38 -33 89 -72 113 -17 10 -57 22 -87 26 -74 9 -93 17 -138 57 -47 43
-133 87 -170 87 -15 1 -55 7 -88 15 -66 16 -153 18 -200 4z"/>
<path d="M9432 5150 c-12 -10 -48 -24 -80 -30 -31 -6 -75 -18 -96 -26 -36 -14
-38 -14 -27 0 19 22 12 20 -50 -14 -30 -16 -63 -29 -74 -29 -14 0 -16 2 -5 6
8 3 26 10 39 15 13 5 21 11 18 15 -8 7 -74 -23 -83 -39 -4 -7 -3 -8 4 -4 7 4
12 4 12 -1 0 -10 -79 -43 -102 -43 -9 0 -20 -5 -24 -11 -4 -8 1 -9 17 -4 59
17 264 79 365 111 61 19 118 42 125 52 13 16 13 16 -5 2 -18 -14 -19 -13 -13
3 8 21 7 21 -21 -3z"/>
<path d="M5987 5150 c-124 -32 -283 -125 -370 -219 -63 -67 -87 -120 -87 -196
0 -104 44 -168 150 -221 97 -48 214 -44 367 13 16 6 17 5 3 -12 -9 -11 -10
-16 -2 -11 20 12 14 -7 -29 -88 -79 -151 -101 -265 -73 -388 20 -86 49 -129
108 -157 55 -27 83 -26 148 2 66 30 111 75 151 152 41 79 42 144 3 235 -31 72
-31 113 0 177 16 31 35 47 108 85 107 57 139 85 171 155 54 114 28 205 -97
333 -63 66 -110 94 -218 130 -46 15 -284 22 -333 10z"/>
<path d="M8998 5053 c-9 -2 -19 -11 -22 -19 -7 -18 -2 -18 33 1 16 8 32 11 36
7 5 -4 5 -1 1 6 -7 12 -17 13 -48 5z"/>
<path d="M8832 5034 c-6 -7 -12 -15 -12 -18 0 -7 40 5 45 14 9 14 -20 18 -33
4z"/>
<path d="M8895 5041 c-6 -11 9 -23 19 -14 9 9 7 23 -3 23 -6 0 -12 -4 -16 -9z"/>
<path d="M8948 5043 c7 -3 16 -2 19 1 4 3 -2 6 -13 5 -11 0 -14 -3 -6 -6z"/>
<path d="M8751 5019 c-39 -16 -18 -19 24 -4 22 8 31 14 20 14 -11 0 -31 -5
-44 -10z"/>
<path d="M8725 4985 c-22 -8 -50 -15 -62 -15 -12 0 -25 -5 -28 -10 -4 -6 -10
-8 -15 -5 -4 3 -16 2 -26 -2 -17 -6 -16 -7 1 -13 18 -6 83 10 117 30 10 6 29
10 42 10 14 0 28 5 31 10 8 14 -12 12 -60 -5z"/>
<path d="M8786 4975 c-17 -13 -18 -15 -3 -15 9 0 17 4 17 9 0 5 10 12 23 14
19 4 19 4 2 5 -11 1 -29 -5 -39 -13z"/>
<path d="M8915 4975 c-5 -2 -66 -20 -135 -40 -69 -20 -129 -41 -134 -46 -5 -5
3 -5 20 0 16 5 83 26 149 45 66 20 125 38 130 40 12 5 -16 6 -30 1z"/>
<path d="M3595 4916 c-335 -101 -465 -154 -654 -267 -114 -68 -181 -132 -223
-211 -32 -59 -34 -82 -12 -138 41 -102 197 -118 359 -37 73 36 169 103 211
149 27 28 93 126 130 193 6 11 21 25 33 31 33 17 66 50 163 164 49 58 104 117
121 133 17 15 27 27 22 26 -6 0 -73 -20 -150 -43z"/>
<path d="M4061 4944 c-103 -28 -167 -63 -230 -128 -60 -63 -81 -108 -81 -171
1 -75 76 -169 160 -201 73 -28 86 -41 109 -107 54 -153 86 -198 176 -245 44
-24 61 -27 150 -27 118 0 175 17 265 77 33 22 80 66 106 98 42 54 49 58 104
69 115 23 223 120 287 256 23 49 28 74 28 136 0 68 -3 80 -30 119 -58 83 -81
92 -298 108 -156 12 -213 13 -304 3 -112 -12 -142 -10 -243 15 -68 17 -130 17
-199 -2z"/>
<path d="M8381 4904 c-12 -14 -20 -28 -17 -31 6 -7 96 16 112 29 6 4 22 7 34
6 13 -2 25 3 28 12 4 12 3 13 -10 3 -8 -7 -17 -10 -20 -7 -4 3 -30 -2 -59 -10
-65 -20 -64 -20 -49 -1 22 27 4 26 -19 -1z"/>
<path d="M9525 4849 c-55 -17 -130 -39 -167 -50 -65 -19 -67 -20 -50 -38 40
-42 50 -60 56 -104 10 -67 9 -168 -2 -179 -13 -13 -102 -20 -102 -8 0 5 -7 7
-16 3 -11 -4 -12 -8 -4 -13 7 -5 1 -10 -16 -13 -16 -3 -54 -15 -84 -26 -48
-18 -51 -21 -25 -22 19 0 4 -7 -43 -18 -40 -9 -70 -20 -65 -25 4 -5 -3 -5 -17
-2 -19 6 -21 5 -10 -3 12 -8 7 -11 -20 -12 -19 0 -46 -4 -60 -8 l-25 -7 23 -6
c24 -7 257 67 284 90 8 6 17 10 20 7 14 -14 452 138 486 168 26 24 31 84 7 93
-8 4 -15 13 -15 21 0 8 -5 11 -12 7 -7 -4 -8 -3 -4 4 4 7 14 12 22 12 8 0 14
8 14 18 0 9 3 34 6 54 5 31 2 41 -19 62 -32 32 -38 32 -162 -5z"/>
<path d="M8460 4835 c-36 -13 -60 -24 -54 -24 5 -1 41 10 80 23 38 14 62 24
54 24 -8 0 -44 -10 -80 -23z"/>
<path d="M8256 4824 c-6 -15 -4 -15 11 -3 10 7 20 15 22 16 2 2 -3 3 -11 3 -9
0 -19 -7 -22 -16z"/>
<path d="M8110 4800 l-45 -7 48 -1 c26 -1 47 3 47 8 0 6 -1 9 -2 8 -2 0 -23
-4 -48 -8z"/>
<path d="M8338 4802 c-1 -4 -38 -21 -81 -36 -43 -16 -76 -30 -74 -32 3 -4 197
64 206 72 2 2 -7 4 -21 4 -15 0 -28 -4 -30 -8z"/>
<path d="M7918 4793 c7 -3 16 -2 19 1 4 3 -2 6 -13 5 -11 0 -14 -3 -6 -6z"/>
<path d="M7978 4793 c12 -2 30 -2 40 0 9 3 -1 5 -23 4 -22 0 -30 -2 -17 -4z"/>
<path d="M7848 4783 c7 -3 16 -2 19 1 4 3 -2 6 -13 5 -11 0 -14 -3 -6 -6z"/>
<path d="M7495 4770 c3 -5 8 -10 11 -10 2 0 4 5 4 10 0 6 -5 10 -11 10 -5 0
-7 -4 -4 -10z"/>
<path d="M7598 4773 c7 -3 16 -2 19 1 4 3 -2 6 -13 5 -11 0 -14 -3 -6 -6z"/>
<path d="M7912 4765 c-18 -20 6 -20 32 0 20 15 20 15 0 15 -10 -1 -25 -7 -32
-15z"/>
<path d="M7990 4770 c0 -6 7 -10 15 -10 8 0 15 2 15 4 0 2 -7 6 -15 10 -8 3
-15 1 -15 -4z"/>
<path d="M7446 4761 c-4 -5 3 -7 14 -4 23 6 26 13 6 13 -8 0 -17 -4 -20 -9z"/>
<path d="M7638 4763 c7 -3 16 -2 19 1 4 3 -2 6 -13 5 -11 0 -14 -3 -6 -6z"/>
<path d="M7784 4761 c3 -5 -1 -11 -9 -15 -17 -6 -20 -26 -4 -26 5 0 7 5 3 11
-5 8 1 10 19 5 14 -3 29 -2 32 4 4 6 -1 7 -11 3 -11 -4 -15 -2 -11 4 4 6 0 14
-9 17 -8 3 -13 2 -10 -3z"/>
<path d="M8042 4751 c-24 -7 -41 -15 -39 -17 4 -4 73 10 127 26 22 7 20 8 -10
6 -19 0 -54 -7 -78 -15z"/>
<path d="M7400 4750 c-8 -5 -10 -10 -5 -10 6 0 17 5 25 10 8 5 11 10 5 10 -5
0 -17 -5 -25 -10z"/>
<path d="M7861 4751 c-8 -5 -16 -18 -18 -29 -2 -18 1 -20 29 -12 42 13 47 20
13 20 -23 0 -26 2 -15 15 14 17 11 19 -9 6z"/>
<path d="M7647 4738 c-21 -6 -36 -15 -34 -22 5 -15 77 -20 91 -6 8 10 -1 11
-39 6 -36 -5 -46 -4 -35 3 8 6 27 11 43 11 15 0 27 5 27 10 0 11 -2 11 -53 -2z"/>
<path d="M7160 4730 c-13 -8 -12 -10 3 -10 9 0 17 5 17 10 0 12 -1 12 -20 0z"/>
<path d="M7274 4728 c10 -6 22 -6 26 -2 5 5 -3 10 -18 11 -22 1 -24 0 -8 -9z"/>
<path d="M7920 4729 c0 -11 27 -12 34 -1 2 4 -4 9 -15 9 -10 1 -19 -2 -19 -8z"/>
<path d="M7500 4719 c0 -5 5 -7 10 -4 6 3 10 8 10 11 0 2 -4 4 -10 4 -5 0 -10
-5 -10 -11z"/>
<path d="M6948 4710 c-159 -27 -267 -103 -292 -205 -4 -16 -7 -72 -7 -124 1
-78 -3 -101 -19 -129 -33 -55 -102 -132 -113 -125 -6 4 -7 1 -2 -6 4 -7 -1
-22 -13 -34 -27 -28 -61 -105 -62 -136 0 -13 -3 -22 -6 -18 -7 6 -64 -19 -64
-29 0 -5 23 1 56 13 6 2 17 -10 24 -27 16 -39 61 -77 106 -89 46 -13 260 10
362 39 91 25 144 58 179 112 27 40 28 47 25 141 l-3 100 63 61 c35 34 88 74
118 89 30 16 75 39 100 52 25 13 119 55 210 93 91 39 208 90 261 115 53 24
106 48 118 52 12 4 20 9 18 12 -3 2 -38 -10 -77 -27 -39 -17 -74 -29 -77 -26
-4 3 -12 -2 -18 -11 -11 -15 -12 -13 -12 11 0 16 -7 32 -14 37 -48 31 -160 38
-384 25 -145 -8 -153 -8 -246 18 -99 27 -147 30 -231 16z"/>
<path d="M7554 4709 c-3 -5 6 -9 20 -9 31 0 34 6 6 13 -11 3 -23 1 -26 -4z"/>
<path d="M8110 4710 c-8 -5 -10 -10 -5 -10 6 0 17 5 25 10 8 5 11 10 5 10 -5
0 -17 -5 -25 -10z"/>
<path d="M7310 4700 c18 -12 30 -13 30 -2 0 4 -10 9 -22 9 -18 2 -20 0 -8 -7z"/>
<path d="M7721 4701 c-9 -6 -4 -10 18 -13 24 -4 28 -2 20 9 -13 15 -19 16 -38
4z"/>
<path d="M7433 4693 c9 -2 25 -2 35 0 9 3 1 5 -18 5 -19 0 -27 -2 -17 -5z"/>
<path d="M7848 4673 c6 -2 18 -2 25 0 6 3 1 5 -13 5 -14 0 -19 -2 -12 -5z"/>
<path d="M8768 4643 c6 -2 18 -2 25 0 6 3 1 5 -13 5 -14 0 -19 -2 -12 -5z"/>
<path d="M8448 4563 c7 -3 16 -2 19 1 4 3 -2 6 -13 5 -11 0 -14 -3 -6 -6z"/>
<path d="M8268 4523 c7 -3 16 -2 19 1 4 3 -2 6 -13 5 -11 0 -14 -3 -6 -6z"/>
<path d="M9330 4490 c-12 -8 -10 -10 8 -10 13 0 20 4 17 10 -7 12 -6 12 -25 0z"/>
<path d="M7953 4465 c-62 -13 -215 -40 -340 -60 -195 -32 -237 -42 -292 -70
-63 -32 -84 -60 -55 -72 8 -3 20 0 27 5 21 18 67 33 67 22 0 -6 -9 -10 -19
-10 -11 0 -23 -4 -26 -10 -8 -13 11 -13 38 1 19 11 29 13 75 18 6 0 12 7 12
14 0 7 11 14 25 15 14 1 36 9 50 18 13 9 28 13 33 10 5 -3 18 3 28 12 10 10
26 16 35 14 9 -1 36 5 60 14 24 9 73 22 109 28 36 7 81 18 100 24 19 6 69 16
110 23 70 11 129 30 90 28 -8 -1 -66 -11 -127 -24z"/>
<path d="M6556 4435 c-9 -26 -7 -32 5 -12 6 10 9 21 6 23 -2 3 -7 -2 -11 -11z"/>
<path d="M8140 4395 c-36 -8 -99 -23 -140 -34 -41 -12 -113 -28 -160 -36 -197
-34 -262 -61 -310 -127 -35 -48 -39 -92 -11 -146 59 -114 209 -135 444 -61
174 54 353 125 399 158 103 73 102 195 -2 240 -56 24 -122 26 -220 6z"/>
<path d="M6530 4350 c-9 -6 -10 -10 -3 -10 6 0 15 5 18 10 8 12 4 12 -15 0z"/>
<path d="M5385 4339 c-28 -3 -71 -16 -95 -29 -46 -23 -151 -102 -183 -138 -12
-13 -47 -27 -95 -37 -158 -35 -219 -62 -289 -130 -77 -77 -106 -136 -107 -220
0 -79 30 -143 103 -216 83 -82 147 -110 278 -119 102 -7 108 -9 130 -36 72
-89 111 -108 213 -107 77 1 232 33 282 59 15 8 38 15 52 16 13 1 29 10 35 20
9 14 8 16 -6 11 -13 -5 -15 -2 -9 13 4 10 12 54 17 98 12 94 23 117 84 176 66
65 89 142 83 289 -3 100 -6 114 -38 177 -41 80 -94 122 -188 150 -69 20 -199
31 -267 23z"/>
<path d="M8858 4343 c7 -3 16 -2 19 1 4 3 -2 6 -13 5 -11 0 -14 -3 -6 -6z"/>
<path d="M6530 4287 l-25 -32 27 20 c15 11 28 26 28 33 0 17 -1 15 -30 -21z"/>
<path d="M8825 4300 c11 -5 15 -9 8 -9 -6 -1 -19 -4 -29 -8 -12 -5 -15 -3 -9
6 5 10 2 11 -14 6 -12 -4 -38 -8 -57 -10 -19 -1 -43 -10 -52 -19 -10 -9 -25
-16 -33 -16 -8 0 -19 -4 -24 -8 -6 -5 -38 -17 -73 -27 -40 -12 -61 -23 -58
-31 3 -7 -2 -10 -14 -7 -10 3 -21 0 -24 -6 -4 -6 -1 -11 6 -11 7 -1 2 -8 -12
-16 -32 -20 -17 -15 105 33 55 22 151 57 213 79 79 27 107 41 95 46 -26 10
-52 9 -28 -2z m-65 -35 c-20 -7 -37 -8 -39 -3 -1 5 -8 3 -15 -5 -6 -8 -38 -24
-71 -35 -33 -11 -68 -23 -77 -27 -10 -4 -18 -3 -18 1 0 5 28 17 62 27 34 10
71 26 83 35 12 9 41 18 66 18 l44 2 -35 -13z m-233 -81 c-3 -3 -12 -4 -19 -1
-8 3 -5 6 6 6 11 1 17 -2 13 -5z"/>
<path d="M7219 4273 c-12 -14 -12 -16 0 -8 10 5 12 4 7 -4 -4 -6 -12 -9 -18
-5 -10 6 -67 -53 -68 -71 0 -5 7 1 16 13 8 12 20 19 26 16 7 -4 8 -2 4 5 -11
17 24 26 46 12 11 -7 23 -10 26 -7 3 3 0 6 -6 6 -6 0 -9 12 -7 30 4 34 -6 38
-26 13z"/>
<path d="M6615 4270 c3 -5 8 -10 11 -10 2 0 4 5 4 10 0 6 -5 10 -11 10 -5 0
-7 -4 -4 -10z"/>
<path d="M6536 4254 c-6 -15 -4 -15 11 -3 10 7 20 15 22 16 2 2 -3 3 -11 3 -9
0 -19 -7 -22 -16z"/>
<path d="M3550 4240 c-125 -13 -283 -85 -357 -162 -26 -27 -33 -43 -34 -79 -1
-24 3 -54 9 -65 10 -19 9 -21 -11 -17 -12 2 -42 0 -67 -6 -24 -5 -47 -6 -50
-2 -3 5 -18 7 -34 6 -38 -5 -20 12 21 18 19 3 34 0 36 -6 3 -8 13 -3 27 11
l23 24 -69 -7 c-38 -4 -75 -12 -82 -18 -7 -5 -15 -7 -18 -5 -3 3 11 16 31 28
36 22 43 41 8 21 -23 -14 -93 -41 -96 -38 -2 1 -21 -13 -44 -30 -22 -18 -46
-33 -52 -33 -6 0 -11 -4 -11 -10 0 -5 -12 -10 -26 -10 l-26 0 23 21 c21 18 21
20 4 14 -11 -4 -37 -11 -57 -15 -21 -4 -45 -13 -55 -21 -9 -8 -14 -9 -10 -3 4
7 0 14 -8 18 -8 3 -15 2 -15 -2 0 -4 -20 -8 -45 -8 -25 0 -45 4 -45 9 0 5 -7
6 -16 3 -12 -5 -11 1 5 28 27 44 20 102 -18 145 -21 24 -39 31 -103 42 -86 14
-133 7 -303 -50 -49 -16 -130 -42 -180 -57 -161 -47 -257 -102 -273 -156 -20
-63 -14 -96 22 -123 18 -14 38 -25 44 -25 7 0 12 -4 12 -9 0 -5 8 -7 18 -5 9
2 136 26 282 54 333 64 499 98 480 99 -21 1 0 17 32 25 15 3 30 2 33 -4 4 -6
-5 -10 -21 -10 -15 0 -25 -2 -22 -5 3 -3 47 -1 99 4 52 6 130 13 174 16 l79 7
-48 -40 c-27 -22 -111 -79 -187 -128 -76 -48 -139 -89 -139 -91 0 -2 9 1 19 7
33 17 35 11 5 -12 -72 -57 -289 -300 -318 -356 -22 -43 -29 -95 -17 -139 14
-50 106 -149 147 -158 16 -4 39 -10 51 -15 16 -7 103 4 290 35 148 24 298 47
336 51 l67 7 26 51 c54 105 94 252 94 342 0 56 -17 93 -75 163 -48 58 -83 146
-65 165 12 12 30 -2 29 -22 -1 -15 -2 -15 -6 1 -2 9 -9 17 -14 17 -13 0 -11
-16 4 -32 8 -7 12 -19 11 -26 -1 -7 0 -8 3 -2 2 5 10 7 16 3 7 -4 7 -1 -1 9
-9 11 -10 18 -2 23 7 4 7 13 -1 28 -9 20 -9 20 4 5 16 -20 37 -24 37 -6 0 6 8
4 19 -6 18 -17 19 -16 17 8 0 13 -5 24 -11 23 -5 -1 -9 6 -8 16 0 12 -4 16
-12 13 -9 -3 -12 0 -9 8 3 8 -4 21 -16 29 -13 9 -17 17 -11 22 6 3 11 2 11 -4
0 -6 7 -8 15 -5 8 4 23 0 32 -7 12 -10 15 -10 9 -1 -10 17 4 15 44 -8 l35 -21
-27 23 -27 23 24 1 c14 1 25 -4 25 -11 0 -14 49 -27 65 -17 5 3 -1 9 -15 13
-22 6 -21 7 10 8 19 1 45 4 58 7 21 6 22 5 12 -20 -17 -45 -12 -137 11 -196
17 -44 40 -74 120 -152 55 -53 95 -99 90 -103 -6 -3 -16 -23 -22 -45 -11 -35
-14 -38 -33 -29 -18 9 -19 8 -5 -3 8 -7 21 -22 27 -33 6 -11 12 -14 12 -7 0 7
15 12 40 12 29 0 42 5 50 20 6 11 15 20 19 20 11 0 9 -19 -2 -37 -6 -9 -3 -11
8 -7 11 4 14 2 9 -9 -5 -13 2 -14 38 -10 24 3 50 12 59 19 24 21 31 16 9 -6
-12 -12 -33 -20 -55 -20 -19 0 -35 -4 -35 -10 0 -5 8 -10 17 -10 21 0 6 -15
-24 -25 -17 -4 -23 -2 -23 8 0 9 6 18 13 20 6 3 2 6 -11 6 -13 1 -21 5 -18 10
7 11 -14 20 -31 14 -21 -7 -15 -21 10 -25 15 -2 21 -9 19 -20 -2 -10 2 -18 8
-18 23 0 8 -20 -22 -29 -21 -6 -25 -9 -13 -10 11 0 26 3 34 8 7 5 25 5 40 1
14 -3 40 -3 56 1 17 5 43 10 59 13 16 3 32 9 35 14 3 4 17 8 31 7 14 0 35 3
48 7 12 4 22 3 22 -2 0 -6 9 -10 20 -10 11 0 20 4 20 10 0 10 64 40 84 40 19
-1 -38 -29 -59 -30 -15 0 -17 -2 -7 -9 17 -10 -5 -21 -46 -22 -15 0 -22 -3
-16 -5 6 -3 83 5 170 17 88 11 240 25 339 29 99 5 248 12 330 15 146 7 198 14
119 16 -21 1 -42 1 -46 0 -4 0 -12 8 -17 18 -13 24 -112 90 -154 102 -85 25
-167 29 -265 13 -103 -16 -120 -24 -246 -111 -77 -54 -98 -65 -76 -38 7 8 9
15 4 15 -5 0 -2 5 6 10 12 8 11 10 -5 8 -39 -3 -55 2 -55 17 0 9 9 15 24 15
13 0 26 6 29 13 3 9 7 9 20 -2 13 -10 17 -10 17 -1 0 6 -9 14 -20 17 -11 3
-17 9 -14 15 3 5 14 6 25 3 15 -5 18 -2 13 12 -5 17 -5 17 9 1 8 -10 17 -15
20 -11 4 3 7 3 7 -2 0 -4 -8 -14 -17 -22 -16 -13 -15 -14 12 -9 28 6 29 5 11
-9 -11 -8 -23 -15 -28 -15 -4 0 -8 -4 -8 -10 0 -12 61 24 85 50 17 19 17 19
-15 15 l-32 -4 26 24 c31 29 57 35 64 16 3 -10 0 -12 -14 -7 -14 5 -16 4 -7
-4 7 -8 17 -9 27 -3 24 14 2 36 -40 39 -43 4 -59 14 -21 14 15 0 27 5 27 11 0
7 -12 8 -32 4 -25 -5 -29 -4 -18 4 8 6 21 11 28 11 6 0 20 8 31 19 21 21 11
54 -15 44 -11 -4 -14 2 -12 25 1 18 -5 39 -16 51 -16 17 -16 23 -4 48 8 15 20
27 27 25 7 -1 9 2 5 9 -5 9 -2 10 9 6 9 -3 19 -2 22 4 4 5 1 8 -5 7 -6 -2 -42
57 -80 129 -63 122 -121 214 -167 269 -32 39 -149 112 -209 133 -72 24 -174
32 -274 21z m-1335 -230 c-3 -5 -14 -10 -23 -10 -15 0 -15 2 -2 10 20 13 33
13 25 0z m-305 -80 c0 -5 -8 -10 -17 -10 -15 0 -16 2 -3 10 19 12 20 12 20 0z
m1046 -17 c-4 -4 -19 -8 -34 -10 -23 -2 -24 -1 -7 7 24 11 51 13 41 3z m134
-53 c0 -5 -2 -10 -4 -10 -3 0 -8 5 -11 10 -3 6 -1 10 4 10 6 0 11 -4 11 -10z
m-483 -16 c-3 -3 -12 -4 -19 -1 -8 3 -5 6 6 6 11 1 17 -2 13 -5z m393 -34 c6
-11 15 -18 20 -15 5 3 11 1 15 -5 13 -21 -22 -9 -43 15 -12 14 -18 25 -12 25
5 0 14 -9 20 -20z m40 -61 c0 -6 -4 -7 -10 -4 -5 3 -10 11 -10 16 0 6 5 7 10
4 6 -3 10 -11 10 -16z m85 3 c-3 -3 -11 0 -18 7 -9 10 -8 11 6 5 10 -3 15 -9
12 -12z m1145 -256 c0 -3 -4 -8 -10 -11 -5 -3 -10 -1 -10 4 0 6 5 11 10 11 6
0 10 -2 10 -4z m-79 -114 c-7 -2 -18 1 -23 6 -8 8 -4 9 13 5 13 -4 18 -8 10
-11z m-107 -27 c-4 -8 -11 -15 -16 -15 -6 0 -5 6 2 15 7 8 14 15 16 15 2 0 1
-7 -2 -15z m-71 -52 c-19 -7 -16 -23 5 -24 16 -1 16 -2 0 -6 -35 -9 -19 -26
19 -20 51 9 27 -13 -26 -23 -31 -5 -41 -4 -43 7 -2 11 -8 10 -24 -6 -12 -11
-24 -18 -27 -15 -2 3 18 27 47 54 28 27 53 46 56 43 3 -3 -1 -8 -7 -10z m47 4
c-27 -15 -36 -14 -25 2 3 6 16 11 28 11 21 0 21 -1 -3 -13z m-254 -89 c4 -6 3
-8 -4 -4 -6 3 -13 2 -16 -3 -11 -17 12 -22 27 -6 13 13 15 12 19 -3 4 -15 -1
-18 -33 -15 -22 2 -39 0 -39 -5 0 -4 -13 -7 -29 -7 -32 0 -29 11 4 17 10 1 27
11 37 21 21 20 25 21 34 5z"/>
<path d="M3980 3269 c0 -5 5 -7 10 -4 6 3 10 8 10 11 0 2 -4 4 -10 4 -5 0 -10
-5 -10 -11z"/>
<path d="M6470 4250 c-1 -3 -4 -23 -6 -44 -3 -21 -16 -58 -30 -82 -14 -24 -21
-44 -15 -44 6 0 11 6 11 14 0 7 7 19 15 26 8 7 18 30 21 52 5 27 10 35 15 26
7 -10 9 -10 8 2 0 16 -17 58 -19 50z"/>
<path d="M6581 4224 c0 -11 3 -14 6 -6 3 7 2 16 -1 19 -3 4 -6 -2 -5 -13z"/>
<path d="M7270 4225 c0 -8 -5 -15 -11 -15 -5 0 -8 -4 -5 -9 8 -13 39 -7 44 9
3 9 0 10 -9 4 -12 -7 -12 -5 0 9 12 15 11 17 -3 17 -9 0 -16 -7 -16 -15z"/>
<path d="M7320 4230 c0 -5 5 -10 10 -10 6 0 10 5 10 10 0 6 -4 10 -10 10 -5 0
-10 -4 -10 -10z"/>
<path d="M8426 4184 c-5 -14 -4 -15 9 -4 17 14 19 20 6 20 -5 0 -12 -7 -15
-16z"/>
<path d="M6420 4179 c0 -5 5 -7 10 -4 6 3 10 8 10 11 0 2 -4 4 -10 4 -5 0 -10
-5 -10 -11z"/>
<path d="M6490 4170 c0 -5 5 -10 10 -10 6 0 10 5 10 10 0 6 -4 10 -10 10 -5 0
-10 -4 -10 -10z"/>
<path d="M7166 4172 c-2 -4 -1 -14 3 -21 6 -9 11 -10 15 -2 4 6 2 11 -4 11 -6
0 -8 5 -5 10 3 6 4 10 1 10 -3 0 -7 -4 -10 -8z"/>
<path d="M8390 4150 c-9 -6 -10 -10 -3 -10 6 0 15 5 18 10 8 12 4 12 -15 0z"/>
<path d="M8370 4120 c-18 -12 -2 -12 25 0 13 6 15 9 5 9 -8 0 -22 -4 -30 -9z"/>
<path d="M6480 4104 c0 -8 5 -12 10 -9 6 4 8 11 5 16 -9 14 -15 11 -15 -7z"/>
<path d="M2970 4099 c0 -5 5 -7 10 -4 6 3 10 8 10 11 0 2 -4 4 -10 4 -5 0 -10
-5 -10 -11z"/>
<path d="M2920 4090 c-13 -8 -12 -10 3 -10 9 0 17 5 17 10 0 12 -1 12 -20 0z"/>
<path d="M3155 4080 c-3 -5 -1 -10 4 -10 6 0 11 5 11 10 0 6 -2 10 -4 10 -3 0
-8 -4 -11 -10z"/>
<path d="M2010 4069 c0 -5 5 -7 10 -4 6 3 10 8 10 11 0 2 -4 4 -10 4 -5 0 -10
-5 -10 -11z"/>
<path d="M7305 4070 c-3 -6 1 -7 9 -4 18 7 21 14 7 14 -6 0 -13 -4 -16 -10z"/>
<path d="M8170 4040 c-8 -5 -10 -10 -5 -10 6 0 17 5 25 10 8 5 11 10 5 10 -5
0 -17 -5 -25 -10z"/>
<path d="M6426 4025 c-11 -8 -15 -15 -9 -15 6 0 16 7 23 15 16 19 11 19 -14 0z"/>
<path d="M2938 4023 c7 -3 16 -2 19 1 4 3 -2 6 -13 5 -11 0 -14 -3 -6 -6z"/>
<path d="M2966 4010 c-22 -10 -45 -16 -53 -13 -7 3 -13 0 -13 -6 0 -6 6 -11
14 -11 20 0 84 28 91 40 8 12 9 13 -39 -10z"/>
<path d="M3094 4021 c3 -5 15 -7 26 -4 28 7 25 13 -6 13 -14 0 -23 -4 -20 -9z"/>
<path d="M8110 4020 c-8 -5 -10 -10 -5 -10 6 0 17 5 25 10 8 5 11 10 5 10 -5
0 -17 -5 -25 -10z"/>
<path d="M2898 4013 c7 -3 16 -2 19 1 4 3 -2 6 -13 5 -11 0 -14 -3 -6 -6z"/>
<path d="M2728 3983 c7 -3 16 -2 19 1 4 3 -2 6 -13 5 -11 0 -14 -3 -6 -6z"/>
<path d="M7309 3973 c-13 -15 -12 -15 9 -4 23 12 28 21 13 21 -5 0 -15 -7 -22
-17z"/>
<path d="M3020 3970 c-9 -6 -10 -10 -3 -10 6 0 15 5 18 10 8 12 4 12 -15 0z"/>
<path d="M3135 3959 c4 -6 -2 -13 -14 -16 -12 -3 -21 -9 -21 -14 0 -5 11 -3
25 3 25 11 35 38 14 38 -5 0 -7 -5 -4 -11z"/>
<path d="M7940 3960 c-8 -5 -10 -10 -5 -10 6 0 17 5 25 10 8 5 11 10 5 10 -5
0 -17 -5 -25 -10z"/>
<path d="M6380 3939 c0 -5 5 -7 10 -4 6 3 10 8 10 11 0 2 -4 4 -10 4 -5 0 -10
-5 -10 -11z"/>
<path d="M7855 3935 c-40 -18 -20 -18 30 0 22 8 31 14 20 14 -11 0 -33 -6 -50
-14z"/>
<path d="M2600 3930 c-21 -7 -21 -8 -5 -9 11 0 27 4 35 9 18 11 5 11 -30 0z"/>
<path d="M2708 3933 c7 -3 16 -2 19 1 4 3 -2 6 -13 5 -11 0 -14 -3 -6 -6z"/>
<path d="M2830 3930 c-9 -6 -10 -10 -3 -10 6 0 15 5 18 10 8 12 4 12 -15 0z"/>
<path d="M6297 3915 c-4 -8 -27 -25 -51 -37 -25 -12 -43 -25 -40 -30 3 -4 -2
-8 -10 -8 -9 0 -16 -5 -16 -11 0 -5 6 -7 13 -3 6 4 -5 -8 -26 -28 -20 -19 -34
-37 -31 -41 3 -3 -3 -19 -15 -36 -12 -16 -19 -36 -15 -44 9 -25 -153 -186
-230 -227 -36 -19 -66 -37 -66 -40 0 -3 19 -13 43 -22 29 -11 35 -17 20 -17
-12 -1 -25 4 -28 9 -3 6 -12 10 -18 10 -7 0 2 -9 18 -20 17 -11 36 -18 43 -15
7 3 11 1 8 -4 -6 -10 24 -25 32 -16 3 3 -4 19 -17 35 -23 32 -18 40 9 15 17
-15 55 -11 45 5 -3 4 5 10 18 14 18 5 19 8 7 15 -12 8 -10 12 10 19 14 5 40
13 58 17 36 7 45 28 10 22 -13 -2 -18 -2 -11 0 7 2 15 13 18 24 4 11 11 16 17
13 6 -4 5 -10 -3 -16 -11 -7 -9 -8 6 -6 11 2 19 11 19 20 -1 10 1 17 5 16 35
-4 46 4 47 33 l1 31 -24 -29 c-18 -21 -21 -23 -13 -6 5 12 15 25 20 28 6 4 7
11 4 17 -4 7 -2 8 4 4 10 -6 92 28 92 39 0 2 -19 -2 -42 -11 -48 -17 -63 -13
-18 6 16 7 30 18 30 25 0 6 13 12 30 12 17 0 35 4 41 10 8 8 -4 9 -38 5 -46
-5 -47 -4 -33 13 14 17 13 18 -2 12 -12 -4 -18 -1 -18 9 0 8 4 12 10 9 5 -3
18 -1 27 4 16 9 16 10 2 11 -22 0 -32 37 -12 44 11 5 13 1 8 -17 -7 -22 -7
-22 9 -2 21 27 21 59 0 51 -8 -3 -13 -2 -9 3 3 5 0 11 -7 13 -9 3 -9 6 0 12 7
4 12 2 12 -3 0 -20 20 -11 32 14 6 13 16 22 22 18 6 -3 8 -3 4 2 -4 4 -3 14 4
22 6 7 9 16 6 19 -3 3 -8 -2 -11 -11z m-349 -530 c-3 -3 -9 2 -12 12 -6 14 -5
15 5 6 7 -7 10 -15 7 -18z"/>
<path d="M6347 3905 c-4 -8 -2 -17 3 -20 6 -4 10 3 10 14 0 25 -6 27 -13 6z"/>
<path d="M7780 3910 c-18 -12 -2 -12 25 0 13 6 15 9 5 9 -8 0 -22 -4 -30 -9z"/>
<path d="M2785 3900 c4 -6 11 -8 16 -5 14 9 11 15 -7 15 -8 0 -12 -5 -9 -10z"/>
<path d="M7685 3884 c-38 -14 -86 -27 -105 -30 -19 -3 -36 -9 -38 -14 -2 -6
-11 -10 -19 -10 -9 0 -14 -3 -10 -6 8 -8 247 67 247 78 0 4 -1 8 -2 7 -2 0
-34 -11 -73 -25z"/>
<path d="M7425 3880 c-13 -6 -15 -9 -5 -9 8 0 22 4 30 9 18 12 2 12 -25 0z"/>
<path d="M7175 3870 c-16 -7 -17 -9 -3 -9 9 -1 20 4 23 9 7 11 7 11 -20 0z"/>
<path d="M6290 3860 c-9 -6 -10 -10 -3 -10 6 0 15 5 18 10 8 12 4 12 -15 0z"/>
<path d="M7306 3855 c-51 -14 -83 -35 -54 -35 9 0 19 4 22 9 3 5 21 12 41 15
19 4 37 11 40 16 4 6 5 10 3 9 -2 0 -25 -7 -52 -14z"/>
<path d="M7201 3849 c-18 -6 -31 -12 -29 -14 5 -5 78 14 78 20 0 6 -8 5 -49
-6z"/>
<path d="M1043 3818 c-51 -17 -90 -34 -87 -39 3 -5 -2 -6 -10 -3 -9 4 -16 1
-16 -6 0 -7 -7 -10 -17 -6 -20 8 -113 -22 -113 -36 0 -6 -3 -9 -6 -5 -12 12
-66 -24 -60 -39 3 -8 2 -13 -2 -10 -5 3 -15 -3 -24 -13 -14 -17 -14 -20 3 -34
10 -9 27 -14 39 -12 24 5 28 -20 4 -29 -25 -10 -54 3 -47 20 3 7 0 14 -6 14
-33 0 -2 -102 37 -119 33 -16 58 -14 216 14 222 40 247 46 241 55 -3 4 1 10 9
13 18 7 46 64 46 93 0 25 -25 44 -62 45 -23 0 -23 0 -1 9 21 8 21 11 8 55 -24
78 -18 77 -152 33z m72 -118 c3 -5 -3 -10 -15 -10 -12 0 -18 5 -15 10 3 6 10
10 15 10 5 0 12 -4 15 -10z m-65 -5 c0 -7 -61 -37 -66 -32 -3 2 10 12 28 20
37 19 38 19 38 12z m-165 -65 c-3 -5 -12 -10 -18 -10 -7 0 -6 4 3 10 19 12 23
12 15 0z m22 -106 c-3 -3 -12 -4 -19 -1 -8 3 -5 6 6 6 11 1 17 -2 13 -5z m-44
-11 c-7 -2 -21 -2 -30 0 -10 3 -4 5 12 5 17 0 24 -2 18 -5z"/>
<path d="M7125 3820 c-8 -13 5 -13 25 0 13 8 13 10 -2 10 -9 0 -20 -4 -23 -10z"/>
<path d="M6385 3810 c-16 -7 -17 -9 -3 -9 9 -1 20 4 23 9 7 11 7 11 -20 0z"/>
<path d="M6452 3811 c-9 -5 -4 -8 16 -7 17 1 28 4 25 9 -6 9 -25 9 -41 -2z"/>
<path d="M7425 3804 c-46 -14 -80 -19 -175 -23 -34 -2 -34 -2 -15 -17 19 -15
18 -16 -15 -10 -23 4 -28 3 -15 -2 17 -8 13 -10 -20 -17 -22 -4 -51 -10 -65
-13 -14 -2 -47 -5 -75 -5 -41 1 -45 -1 -20 -7 l30 -7 -26 -7 c-14 -4 -32 -9
-40 -10 -22 -5 -65 -25 -54 -25 6 -1 48 10 95 23 47 13 171 47 275 76 105 29
192 54 194 56 8 8 -25 2 -74 -12z m-108 -30 c-3 -3 -12 -4 -19 -1 -8 3 -5 6 6
6 11 1 17 -2 13 -5z"/>
<path d="M3204 3795 c8 -8 18 -15 22 -15 3 0 1 7 -6 15 -7 8 -17 15 -22 15 -5
0 -3 -7 6 -15z"/>
<path d="M6112 3784 c-7 -8 -11 -18 -9 -22 8 -12 -12 -54 -22 -47 -5 3 -13 0
-17 -6 -5 -8 -3 -9 6 -4 10 6 12 3 7 -11 -5 -14 -2 -12 13 6 11 14 23 36 26
50 4 14 11 31 17 38 13 17 -5 14 -21 -4z"/>
<path d="M7140 3789 c0 -3 -15 -11 -32 -17 -33 -11 -33 -12 -3 -6 17 3 45 8
63 11 44 7 49 21 7 19 -19 0 -35 -4 -35 -7z"/>
<path d="M6040 3780 c-9 -6 -10 -10 -3 -10 6 0 15 5 18 10 8 12 4 12 -15 0z"/>
<path d="M6075 3770 c-3 -5 -1 -10 4 -10 6 0 11 5 11 10 0 6 -2 10 -4 10 -3 0
-8 -4 -11 -10z"/>
<path d="M6608 3773 c18 -2 45 -2 60 0 15 2 0 4 -33 4 -33 0 -45 -2 -27 -4z"/>
<path d="M6480 3760 c-13 -8 -12 -10 3 -10 9 0 17 5 17 10 0 12 -1 12 -20 0z"/>
<path d="M6775 3750 c-16 -7 -17 -9 -3 -9 9 -1 20 4 23 9 7 11 7 11 -20 0z"/>
<path d="M7015 3744 c-16 -8 -46 -23 -65 -34 -19 -10 -51 -20 -70 -21 -22 -1
-28 -3 -15 -6 29 -8 125 16 125 31 0 7 17 20 38 29 20 8 33 15 27 16 -5 0 -23
-7 -40 -15z"/>
<path d="M6043 3725 c-6 -14 -7 -23 -2 -19 13 8 31 44 22 44 -4 0 -13 -11 -20
-25z"/>
<path d="M6480 3730 c-18 -12 -2 -12 25 0 13 6 15 9 5 9 -8 0 -22 -4 -30 -9z"/>
<path d="M6363 3714 c-45 -19 -41 -27 5 -10 20 8 44 17 52 19 10 4 8 5 -5 5
-11 0 -35 -6 -52 -14z"/>
<path d="M6545 3720 l-20 -9 20 0 c11 0 27 4 35 9 13 9 13 10 0 9 -8 0 -24 -4
-35 -9z"/>
<path d="M6645 3715 c-22 -7 -31 -13 -20 -14 11 0 34 6 50 14 38 17 22 17 -30
0z"/>
<path d="M6835 3710 c-3 -5 -2 -10 4 -10 5 0 13 5 16 10 3 6 2 10 -4 10 -5 0
-13 -4 -16 -10z"/>
<path d="M1605 3700 c-3 -5 -2 -10 4 -10 5 0 13 5 16 10 3 6 2 10 -4 10 -5 0
-13 -4 -16 -10z"/>
<path d="M6470 3700 c-8 -5 -10 -10 -5 -10 6 0 17 5 25 10 8 5 11 10 5 10 -5
0 -17 -5 -25 -10z"/>
<path d="M3130 3684 c0 -8 4 -14 8 -14 5 0 17 6 27 14 18 13 17 14 -8 14 -16
0 -27 -6 -27 -14z"/>
<path d="M6415 3690 c-16 -7 -17 -9 -3 -9 9 -1 20 4 23 9 7 11 7 11 -20 0z"/>
<path d="M6575 3690 c-16 -7 -17 -9 -3 -9 9 -1 20 4 23 9 7 11 7 11 -20 0z"/>
<path d="M1445 3680 l-30 -8 27 -1 c15 0 30 4 33 9 3 6 5 9 3 9 -2 -1 -16 -5
-33 -9z"/>
<path d="M3224 3675 c11 -8 24 -15 30 -15 5 0 1 7 -10 15 -10 8 -23 14 -29 14
-5 0 -1 -6 9 -14z"/>
<path d="M6086 3671 c-4 -6 -14 -8 -24 -5 -14 5 -15 4 -2 -5 9 -6 10 -11 3
-11 -6 0 -14 -9 -18 -20 -3 -11 -9 -19 -13 -18 -9 3 -52 -25 -52 -33 0 -3 7
-6 15 -6 8 0 15 6 15 14 0 7 6 13 13 13 15 0 82 69 74 76 -3 3 -8 1 -11 -5z"/>
<path d="M3150 3659 c0 -5 4 -8 9 -5 5 3 11 -1 15 -9 3 -8 10 -15 16 -15 5 0
2 9 -7 20 -19 22 -33 26 -33 9z"/>
<path d="M6415 3665 c-5 -2 -22 -6 -37 -9 -16 -4 -28 -11 -28 -17 0 -6 5 -7
11 -3 6 4 32 12 58 19 25 7 37 13 26 13 -11 0 -24 -1 -30 -3z"/>
<path d="M6495 3660 c-3 -5 -1 -10 4 -10 6 0 11 5 11 10 0 6 -2 10 -4 10 -3 0
-8 -4 -11 -10z"/>
<path d="M6681 3655 c-18 -8 -44 -15 -57 -15 -14 0 -41 -7 -62 -16 -20 -9 -54
-16 -74 -15 -21 0 -40 -4 -43 -9 -6 -10 23 -22 36 -15 4 3 43 15 86 25 114 29
153 42 153 52 0 10 2 10 -39 -7z"/>
<path d="M6768 3653 c7 -3 16 -2 19 1 4 3 -2 6 -13 5 -11 0 -14 -3 -6 -6z"/>
<path d="M6875 3650 c-13 -5 -14 -9 -5 -9 8 0 24 4 35 9 13 5 14 9 5 9 -8 0
-24 -4 -35 -9z"/>
<path d="M1493 3636 c-28 -6 -54 -14 -58 -17 -9 -10 99 13 110 22 5 5 7 8 5 8
-3 -1 -28 -6 -57 -13z"/>
<path d="M1568 3643 c7 -3 16 -2 19 1 4 3 -2 6 -13 5 -11 0 -14 -3 -6 -6z"/>
<path d="M6420 3630 c0 -5 4 -10 9 -10 6 0 13 5 16 10 3 6 -1 10 -9 10 -9 0
-16 -4 -16 -10z"/>
<path d="M6828 3633 c7 -3 16 -2 19 1 4 3 -2 6 -13 5 -11 0 -14 -3 -6 -6z"/>
<path d="M6285 3620 c-3 -6 1 -7 9 -4 18 7 21 14 7 14 -6 0 -13 -4 -16 -10z"/>
<path d="M6488 3623 c7 -3 16 -2 19 1 4 3 -2 6 -13 5 -11 0 -14 -3 -6 -6z"/>
<path d="M6788 3623 c7 -3 16 -2 19 1 4 3 -2 6 -13 5 -11 0 -14 -3 -6 -6z"/>
<path d="M1342 3613 c-13 -5 -7 -23 9 -23 6 0 8 4 5 9 -4 5 0 12 6 14 7 3 9 5
3 5 -5 0 -16 -2 -23 -5z"/>
<path d="M6635 3610 l-30 -8 27 -1 c15 0 30 4 33 9 3 6 5 9 3 9 -2 -1 -16 -5
-33 -9z"/>
<path d="M1250 3600 c-12 -8 -11 -10 8 -10 12 0 22 5 22 10 0 13 -11 13 -30 0z"/>
<path d="M6338 3603 c7 -3 16 -2 19 1 4 3 -2 6 -13 5 -11 0 -14 -3 -6 -6z"/>
<path d="M6274 3585 c-24 -18 -7 -19 26 0 16 9 19 14 9 15 -8 0 -24 -7 -35
-15z"/>
<path d="M2429 3562 c-24 -16 -104 -61 -176 -101 -73 -40 -133 -75 -133 -77 0
-3 29 11 65 31 35 19 66 35 67 34 2 -2 21 9 43 23 22 14 73 44 113 68 63 37
81 50 69 50 -2 0 -23 -13 -48 -28z"/>
<path d="M1248 3573 c6 -2 18 -2 25 0 6 3 1 5 -13 5 -14 0 -19 -2 -12 -5z"/>
<path d="M6567 3564 c-25 -14 -113 -34 -159 -37 -9 -1 -14 -5 -12 -9 3 -4 -8
-10 -23 -14 -15 -3 -44 -13 -63 -21 -19 -9 -63 -19 -97 -23 -67 -6 -78 -12
-78 -38 0 -10 -9 -18 -22 -20 -13 -2 -23 -8 -23 -14 0 -6 10 -8 23 -4 13 3 39
1 58 -4 21 -6 35 -6 37 -1 2 6 10 7 18 4 22 -8 64 6 64 22 0 22 38 39 55 25 8
-7 19 -9 25 -5 5 3 10 2 10 -4 0 -5 9 -9 21 -8 18 1 18 3 5 13 -21 15 -20 34
2 34 14 0 15 -2 2 -10 -11 -7 -4 -10 26 -10 22 0 45 -5 52 -12 9 -9 12 -9 12
0 0 7 -6 12 -12 12 -15 1 52 32 69 33 7 0 17 13 22 29 8 23 7 28 -6 28 -11 0
-5 9 17 25 37 27 22 33 -23 9z m-37 -64 c0 -5 -7 -6 -17 -3 -10 4 -14 2 -10
-4 4 -6 1 -11 -6 -10 -33 1 -57 -4 -57 -12 0 -5 9 -7 20 -4 11 3 20 0 20 -6 0
-6 -11 -11 -25 -11 -14 0 -25 2 -25 4 0 2 -3 13 -7 23 -3 10 -3 15 1 11 4 -3
26 2 49 12 42 17 57 17 57 0z m-173 -46 c-3 -3 -12 -4 -19 -1 -8 3 -5 6 6 6
11 1 17 -2 13 -5z m-77 -18 c0 -2 -7 -7 -16 -10 -8 -3 -12 -2 -9 4 6 10 25 14
25 6z m-85 -36 c3 -5 2 -10 -4 -10 -5 0 -13 5 -16 10 -3 6 -2 10 4 10 5 0 13
-4 16 -10z m69 -2 c-15 -7 -28 -7 -40 1 -16 9 -12 10 21 10 35 0 37 -2 19 -11z"/>
<path d="M6205 3549 c-20 -13 -24 -19 -13 -19 9 0 19 4 23 10 3 5 12 7 19 4 8
-3 17 -1 20 4 11 19 -19 19 -49 1z"/>
<path d="M6326 3561 c-4 -5 3 -7 14 -4 23 6 26 13 6 13 -8 0 -17 -4 -20 -9z"/>
<path d="M4360 3530 c0 -5 5 -10 11 -10 5 0 7 5 4 10 -3 6 -8 10 -11 10 -2 0
-4 -4 -4 -10z"/>
<path d="M4408 3523 c6 -2 18 -2 25 0 6 3 1 5 -13 5 -14 0 -19 -2 -12 -5z"/>
<path d="M3430 3499 c0 -5 5 -7 10 -4 6 3 10 8 10 11 0 2 -4 4 -10 4 -5 0 -10
-5 -10 -11z"/>
<path d="M5864 3485 c-10 -8 -14 -15 -8 -15 6 0 17 7 24 15 16 19 9 19 -16 0z"/>
<path d="M6298 3493 c7 -3 16 -2 19 1 4 3 -2 6 -13 5 -11 0 -14 -3 -6 -6z"/>
<path d="M6225 3480 c3 -5 10 -10 16 -10 5 0 9 5 9 10 0 6 -7 10 -16 10 -8 0
-12 -4 -9 -10z"/>
<path d="M4271 3444 c0 -11 3 -14 6 -6 3 7 2 16 -1 19 -3 4 -6 -2 -5 -13z"/>
<path d="M4613 3443 c15 -2 37 -2 50 0 12 2 0 4 -28 4 -27 0 -38 -2 -22 -4z"/>
<path d="M4807 3439 c7 -7 15 -10 18 -7 3 3 -2 9 -12 12 -14 6 -15 5 -6 -5z"/>
<path d="M5718 3443 c7 -3 16 -2 19 1 4 3 -2 6 -13 5 -11 0 -14 -3 -6 -6z"/>
<path d="M3480 3420 c0 -13 11 -13 30 0 12 8 11 10 -7 10 -13 0 -23 -4 -23
-10z"/>
<path d="M4305 3420 c-14 -7 -8 -8 20 -3 22 3 42 7 44 9 9 8 -45 2 -64 -6z"/>
<path d="M6326 3415 c4 -8 1 -15 -6 -15 -6 0 -9 -4 -6 -8 7 -12 99 -13 116 -1
11 8 7 9 -17 6 -18 -2 -33 0 -33 4 0 4 -9 5 -20 2 -14 -4 -20 0 -20 11 0 9 -4
16 -10 16 -5 0 -7 -7 -4 -15z"/>
<path d="M6447 3409 c7 -7 15 -10 18 -7 3 3 -2 9 -12 12 -14 6 -15 5 -6 -5z"/>
<path d="M5748 3386 c-20 -6 -40 -15 -45 -20 -9 -10 27 0 72 19 37 16 23 17
-27 1z"/>
<path d="M5975 3370 c-3 -6 1 -7 9 -4 18 7 21 14 7 14 -6 0 -13 -4 -16 -10z"/>
<path d="M6290 3369 c0 -5 12 -9 27 -9 30 0 27 9 -6 15 -11 2 -21 0 -21 -6z"/>
<path d="M4848 3363 c7 -3 16 -2 19 1 4 3 -2 6 -13 5 -11 0 -14 -3 -6 -6z"/>
<path d="M6140 3360 c-21 -7 -21 -8 -5 -9 11 0 27 4 35 9 18 11 5 11 -30 0z"/>
<path d="M6055 3350 c-13 -6 -15 -9 -5 -9 8 0 22 4 30 9 18 12 2 12 -25 0z"/>
<path d="M6217 3354 c-3 -4 -21 -10 -39 -14 -27 -6 -28 -8 -8 -8 14 0 43 5 65
13 34 11 36 13 14 14 -14 1 -28 -2 -32 -5z"/>
<path d="M5947 3336 c-8 -21 42 -31 60 -13 13 12 12 15 -1 20 -9 4 -16 2 -16
-3 0 -6 -8 -10 -17 -10 -15 0 -16 2 -3 10 13 8 13 10 -1 10 -9 0 -19 -6 -22
-14z"/>
<path d="M5093 3333 c9 -2 23 -2 30 0 6 3 -1 5 -18 5 -16 0 -22 -2 -12 -5z"/>
<path d="M4934 3322 c-12 -2 -30 -12 -39 -22 -17 -19 -4 -23 23 -7 7 5 12 4
12 -2 0 -20 18 -11 23 11 7 26 8 25 -19 20z"/>
<path d="M5012 3318 c2 -6 10 -13 16 -14 7 -1 8 0 2 3 -5 2 -8 9 -4 14 3 5 0
9 -6 9 -7 0 -10 -5 -8 -12z"/>
<path d="M6030 3319 c-11 -7 3 -8 45 -3 33 3 62 8 64 10 10 9 -96 3 -109 -7z"/>
<path d="M5076 3305 c9 -23 106 -36 119 -16 3 6 -9 8 -29 4 -21 -3 -46 0 -64
10 -23 11 -29 12 -26 2z"/>
<path d="M4852 3303 c-13 -5 -7 -23 9 -23 6 0 8 4 5 9 -4 5 0 12 6 14 7 3 9 5
3 5 -5 0 -16 -2 -23 -5z"/>
<path d="M5488 3303 c7 -3 16 -2 19 1 4 3 -2 6 -13 5 -11 0 -14 -3 -6 -6z"/>
<path d="M4110 3290 c-13 -8 -12 -10 3 -10 9 0 17 5 17 10 0 12 -1 12 -20 0z"/>
<path d="M5238 3293 c7 -3 16 -2 19 1 4 3 -2 6 -13 5 -11 0 -14 -3 -6 -6z"/>
<path d="M5438 3293 c6 -2 18 -2 25 0 6 3 1 5 -13 5 -14 0 -19 -2 -12 -5z"/>
<path d="M5337 3279 c7 -7 15 -10 18 -7 3 3 -2 9 -12 12 -14 6 -15 5 -6 -5z"/>
<path d="M5263 3263 c9 -2 23 -2 30 0 6 3 -1 5 -18 5 -16 0 -22 -2 -12 -5z"/>
<path d="M3580 3245 c0 -9 -6 -12 -17 -8 -15 5 -14 3 2 -10 20 -16 40 -13 30
4 -4 5 -1 9 5 9 6 0 8 5 5 10 -9 15 -25 12 -25 -5z"/>
<path d="M5048 3253 c7 -3 16 -2 19 1 4 3 -2 6 -13 5 -11 0 -14 -3 -6 -6z"/>
<path d="M5143 3253 c15 -2 37 -2 50 0 12 2 0 4 -28 4 -27 0 -38 -2 -22 -4z"/>
<path d="M3318 3203 c7 -3 16 -2 19 1 4 3 -2 6 -13 5 -11 0 -14 -3 -6 -6z"/>
<path d="M3403 3170 c-1 -16 1 -17 12 -7 7 6 11 15 8 20 -8 13 -19 7 -20 -13z"/>
<path d="M3610 3180 c-8 -5 -12 -12 -9 -15 4 -3 12 1 19 10 14 17 11 19 -10 5z"/>
<path d="M3755 3144 c-66 -13 -126 -22 -132 -19 -7 2 -13 0 -13 -5 0 -6 -10
-10 -22 -10 -12 0 -19 -3 -16 -6 3 -3 77 8 164 25 88 16 170 32 184 34 18 3
15 4 -10 5 -19 0 -89 -11 -155 -24z"/>
<path d="M3464 3149 c-9 -15 -2 -18 20 -9 17 6 18 7 3 13 -9 3 -19 2 -23 -4z"/>
<path d="M1535 3123 c-26 -7 -198 -79 -257 -109 -26 -13 -69 -43 -96 -66 -27
-24 -62 -53 -78 -65 -20 -16 -23 -21 -9 -16 19 5 18 4 -2 -16 -25 -24 -29 -46
-11 -57 8 -5 9 -2 5 9 -3 9 -1 19 5 23 7 4 8 3 4 -4 -5 -8 2 -12 19 -12 22 0
30 7 43 42 15 39 17 40 23 17 12 -40 10 -59 -5 -59 -8 0 -21 -9 -28 -19 -9
-13 -24 -19 -46 -17 -30 2 -31 1 -16 -15 9 -10 41 -23 71 -29 48 -10 78 -8
251 20 177 30 260 49 211 50 -16 0 -35 50 -19 50 4 0 7 15 8 33 1 17 6 47 11
65 12 41 5 83 -23 136 -22 42 -29 46 -61 39z m-295 -158 c0 -2 -10 -9 -22 -15
-22 -11 -22 -10 -4 4 21 17 26 19 26 11z m220 -7 c0 -12 -18 -18 -34 -12 -25
9 -19 22 9 20 14 0 25 -4 25 -8z m-120 -8 c-20 -13 -33 -13 -25 0 3 6 14 10
23 10 15 0 15 -2 2 -10z m36 -15 c-13 -10 -15 -15 -6 -15 7 0 11 -2 9 -5 -3
-2 -15 -1 -28 2 l-23 6 23 13 c32 18 49 17 25 -1z m-79 -35 c3 -10 2 -11 -4
-4 -4 6 -15 14 -23 17 -11 5 -9 6 4 4 11 -1 21 -9 23 -17z m-85 -52 c-7 -7
-12 -8 -12 -2 0 14 12 26 19 19 2 -3 -1 -11 -7 -17z m18 -13 c-7 -8 -17 -15
-23 -15 -6 0 -2 7 9 15 25 19 30 19 14 0z m27 -91 c-3 -3 -12 -4 -19 -1 -8 3
-5 6 6 6 11 1 17 -2 13 -5z"/>
<path d="M3523 3093 c9 -2 23 -2 30 0 6 3 -1 5 -18 5 -16 0 -22 -2 -12 -5z"/>
<path d="M3247 3079 c7 -7 15 -10 18 -7 3 3 -2 9 -12 12 -14 6 -15 5 -6 -5z"/>
<path d="M3355 3073 c-120 -19 -138 -23 -132 -29 4 -5 239 32 262 41 21 8 -44
2 -130 -12z"/>
<path d="M3158 3033 c6 -2 18 -2 25 0 6 3 1 5 -13 5 -14 0 -19 -2 -12 -5z"/>
<path d="M3108 3023 c7 -3 16 -2 19 1 4 3 -2 6 -13 5 -11 0 -14 -3 -6 -6z"/>
<path d="M2267 2939 c7 -7 15 -10 18 -7 3 3 -2 9 -12 12 -14 6 -15 5 -6 -5z"/>
<path d="M2010 2920 c-9 -6 -10 -10 -3 -10 6 0 15 5 18 10 8 12 4 12 -15 0z"/>
<path d="M2030 2900 c-18 -12 -2 -12 25 0 13 6 15 9 5 9 -8 0 -22 -4 -30 -9z"/>
<path d="M2198 2903 c7 -3 16 -2 19 1 4 3 -2 6 -13 5 -11 0 -14 -3 -6 -6z"/>
<path d="M2285 2900 c-18 -8 -18 -9 5 -8 14 0 36 4 50 8 24 8 24 8 -5 8 -16 0
-39 -3 -50 -8z"/>
<path d="M1900 2890 c-9 -6 -10 -10 -3 -10 6 0 15 5 18 10 8 12 4 12 -15 0z"/>
<path d="M2140 2880 c-15 -5 4 -6 45 -3 39 3 72 7 74 9 8 7 -94 2 -119 -6z"/>
<path d="M2010 2860 c-27 -6 -29 -8 -10 -8 14 -1 43 3 65 7 33 7 35 9 10 9
-16 -1 -46 -4 -65 -8z"/>
<path d="M1909 2845 c-5 -4 -173 -26 -209 -28 -8 0 -24 -6 -35 -14 -19 -14
-19 -14 5 -9 14 3 86 15 160 27 137 21 167 29 113 29 -16 0 -32 -2 -34 -5z"/>
<path d="M1658 2833 c7 -3 16 -2 19 1 4 3 -2 6 -13 5 -11 0 -14 -3 -6 -6z"/>
</g>
</svg>
